<?xml version="1.0" encoding="UTF-8"?>
<svg xmlns="http://www.w3.org/2000/svg" xmlns:xlink="http://www.w3.org/1999/xlink" width="256pt" height="255pt" viewBox="0 0 256 255" version="1.1">
<g id="surface1">
<path style=" stroke:none;fill-rule:nonzero;fill:rgb(0%,0%,0%);fill-opacity:1;" d="M 116.554688 1.277344 C 114.4375 1.40625 111.710938 1.691406 110.460938 1.882812 C 109.242188 2.074219 106.835938 2.492188 105.171875 2.746094 C 103.503906 3.003906 101.386719 3.449219 100.488281 3.703125 C 99.589844 3.960938 98.597656 4.152344 98.277344 4.152344 C 97.957031 4.152344 96.898438 4.375 95.902344 4.664062 C 94.910156 4.949219 93.402344 5.367188 92.503906 5.621094 C 90.644531 6.164062 84.394531 8.175781 83.300781 8.589844 C 82.886719 8.75 81.925781 9.132812 81.121094 9.421875 C 80.320312 9.742188 79.167969 10.1875 78.558594 10.476562 C 77.949219 10.730469 77.019531 11.148438 76.472656 11.371094 C 74.550781 12.167969 66.820312 16 64.929688 17.085938 C 63.871094 17.695312 62.78125 18.300781 62.523438 18.429688 C 62.269531 18.554688 61.691406 18.875 61.242188 19.195312 C 60.792969 19.484375 59.160156 20.570312 57.554688 21.589844 C 54.796875 23.347656 47.648438 28.585938 46.492188 29.671875 C 46.203125 29.957031 45.082031 30.886719 43.992188 31.777344 C 41.621094 33.695312 32.832031 42.480469 30.589844 45.195312 C 29.722656 46.246094 28.921875 47.171875 28.824219 47.269531 C 28.730469 47.367188 27.160156 49.441406 25.296875 51.902344 C 21.578125 56.851562 19.945312 59.246094 18.917969 61.164062 C 18.726562 61.515625 18.308594 62.21875 17.957031 62.761719 C 17.601562 63.269531 17.1875 64.003906 16.992188 64.355469 C 16.800781 64.707031 16.160156 65.859375 15.550781 66.910156 C 13.722656 70.203125 10.902344 76.046875 9.78125 78.890625 C 9.492188 79.6875 9.105469 80.582031 8.945312 80.871094 C 8.433594 81.859375 5.898438 89.300781 4.96875 92.527344 C 3.910156 96.230469 2.886719 100.257812 2.660156 101.566406 C 2.597656 102.011719 2.339844 103.449219 2.085938 104.757812 C 0.832031 111.339844 0 120.472656 0 127.4375 C 0 136.21875 1.21875 147.429688 2.949219 154.585938 C 3.140625 155.382812 3.398438 156.597656 3.527344 157.300781 C 3.625 158 3.878906 159.085938 4.070312 159.695312 C 4.265625 160.300781 4.679688 161.675781 4.96875 162.730469 C 5.898438 165.890625 6.476562 167.773438 6.957031 169.117188 C 7.246094 169.820312 7.632812 170.9375 7.886719 171.574219 C 8.753906 173.9375 9.394531 175.535156 9.875 176.621094 C 10.132812 177.230469 10.550781 178.15625 10.773438 178.699219 C 11.222656 179.753906 15.230469 187.863281 15.839844 188.917969 C 16.03125 189.269531 16.929688 190.769531 17.796875 192.207031 C 18.695312 193.675781 19.558594 195.113281 19.71875 195.402344 C 20.554688 196.808594 25.683594 204.21875 25.941406 204.410156 C 26.066406 204.503906 26.933594 205.558594 27.894531 206.804688 C 28.859375 208.019531 29.722656 209.105469 29.820312 209.199219 C 29.949219 209.296875 31.007812 210.507812 32.222656 211.914062 C 39.40625 220.25 50.917969 229.800781 61.5625 236.25 C 66.179688 239.03125 72.367188 242.191406 77.113281 244.171875 C 77.660156 244.394531 78.589844 244.8125 79.199219 245.066406 C 80.257812 245.515625 80.898438 245.769531 84.167969 246.953125 C 86.445312 247.78125 87.664062 248.230469 88.65625 248.484375 C 89.203125 248.644531 90.066406 248.898438 90.582031 249.058594 C 95.648438 250.785156 104.59375 252.636719 113.347656 253.753906 C 117.898438 254.328125 136.367188 254.425781 139.960938 253.882812 C 141.210938 253.691406 143.359375 253.433594 144.769531 253.273438 C 146.179688 253.117188 148.199219 252.828125 149.257812 252.636719 C 154.101562 251.710938 156.121094 251.296875 157.59375 250.878906 C 158.492188 250.625 159.550781 250.367188 160 250.273438 C 160.449219 250.175781 161.570312 249.890625 162.46875 249.601562 C 163.398438 249.316406 164.839844 248.898438 165.675781 248.644531 C 167.953125 248.003906 169.363281 247.496094 170.324219 247.015625 C 170.773438 246.761719 171.414062 246.566406 171.703125 246.566406 C 171.992188 246.566406 172.632812 246.375 173.082031 246.121094 C 173.5625 245.867188 174.589844 245.417969 175.390625 245.132812 C 176.191406 244.8125 177.28125 244.394531 177.796875 244.171875 C 179.625 243.375 189.339844 238.519531 190.300781 237.914062 C 190.84375 237.59375 191.550781 237.179688 191.902344 236.988281 C 192.257812 236.792969 192.992188 236.378906 193.507812 236.027344 C 194.050781 235.675781 194.695312 235.292969 194.949219 235.164062 C 195.847656 234.75 202.484375 230.183594 204.34375 228.714844 C 205.371094 227.914062 207.039062 226.605469 208.0625 225.808594 C 210.757812 223.699219 212.234375 222.328125 217.394531 217.183594 C 223.007812 211.59375 225.28125 209.039062 229.003906 204.121094 C 229.484375 203.484375 230.21875 202.554688 230.605469 202.046875 C 231.023438 201.535156 231.472656 200.863281 231.664062 200.542969 C 231.824219 200.226562 232.6875 198.914062 233.585938 197.636719 C 235.285156 195.148438 235.765625 194.410156 236.3125 193.390625 C 236.503906 193.039062 236.921875 192.304688 237.273438 191.792969 C 239.679688 188.054688 244.265625 178.507812 246.445312 172.695312 C 246.703125 172.054688 247.085938 170.96875 247.34375 170.296875 C 247.597656 169.660156 248.046875 168.316406 248.335938 167.359375 C 248.65625 166.402344 249.105469 165.125 249.332031 164.550781 C 249.585938 163.972656 249.78125 163.273438 249.78125 163.015625 C 249.78125 162.730469 250.003906 161.835938 250.261719 161.003906 C 251.703125 156.371094 253.113281 149.058594 254.109375 140.851562 C 254.78125 135.324219 254.78125 119.769531 254.109375 114.339844 C 253.050781 105.972656 251.894531 99.90625 250.195312 93.898438 C 249.136719 90.257812 248.722656 88.917969 248.304688 87.894531 C 248.046875 87.320312 247.855469 86.648438 247.855469 86.394531 C 247.855469 86.140625 247.664062 85.46875 247.40625 84.894531 C 247.148438 84.320312 246.703125 83.199219 246.414062 82.402344 C 245.773438 80.710938 245.289062 79.496094 244.519531 77.769531 C 244.199219 77.070312 243.75 76.046875 243.527344 75.535156 C 242.820312 73.84375 240.640625 69.5625 239.199219 66.910156 C 238.429688 65.507812 237.628906 64.070312 237.433594 63.71875 C 237.082031 63.078125 236.183594 61.609375 234.132812 58.449219 C 232.882812 56.53125 229.226562 51.359375 228.90625 51.101562 C 228.808594 51.007812 227.976562 49.953125 227.046875 48.738281 C 222.75 42.988281 213.707031 33.917969 207.453125 29.03125 C 206.492188 28.265625 205.402344 27.402344 205.082031 27.085938 C 204.730469 26.765625 203.863281 26.125 203.160156 25.648438 C 202.421875 25.167969 201.78125 24.6875 201.683594 24.5625 C 201.457031 24.335938 195.589844 20.441406 195.429688 20.441406 C 195.367188 20.441406 194.695312 20.027344 193.925781 19.515625 C 193.15625 19.003906 191.9375 18.269531 191.167969 17.855469 C 190.398438 17.4375 188.953125 16.640625 187.960938 16.066406 C 184.464844 14.148438 179.625 11.847656 176.351562 10.539062 C 175.390625 10.1875 174.171875 9.644531 173.691406 9.390625 C 173.179688 9.132812 172.570312 8.941406 172.3125 8.941406 C 172.054688 8.941406 171.605469 8.816406 171.285156 8.625 C 170.710938 8.273438 168.433594 7.472656 166.894531 7.027344 C 166.378906 6.898438 165.515625 6.613281 164.96875 6.453125 C 164.457031 6.261719 163.207031 5.910156 162.246094 5.621094 C 161.28125 5.367188 159.679688 4.949219 158.71875 4.695312 C 155.480469 3.800781 149.003906 2.554688 143.359375 1.757812 C 139.160156 1.148438 122.871094 0.863281 116.554688 1.277344 Z M 142.460938 6.546875 C 144.449219 6.835938 146.917969 7.21875 147.976562 7.410156 C 149.035156 7.601562 150.542969 7.855469 151.34375 7.984375 C 152.144531 8.113281 153.523438 8.398438 154.390625 8.625 C 155.285156 8.816406 156.859375 9.230469 157.914062 9.484375 C 158.972656 9.742188 160.289062 10.09375 160.800781 10.285156 C 161.347656 10.445312 162.277344 10.730469 162.886719 10.859375 C 164.105469 11.148438 165.449219 11.59375 169.875 13.222656 C 173.882812 14.691406 174.589844 14.980469 178.117188 16.609375 C 181.609375 18.207031 187.671875 21.335938 189.339844 22.390625 C 189.882812 22.707031 190.523438 23.09375 190.78125 23.21875 C 191.039062 23.347656 192.160156 24.050781 193.28125 24.816406 C 194.40625 25.582031 195.367188 26.191406 195.464844 26.191406 C 195.558594 26.191406 200.082031 29.414062 201.363281 30.4375 C 201.621094 30.660156 202.871094 31.621094 204.089844 32.578125 C 205.339844 33.535156 206.910156 34.8125 207.613281 35.421875 C 209.828125 37.367188 218.773438 46.375 220.792969 48.707031 C 222.910156 51.167969 228.617188 58.609375 228.617188 58.960938 C 228.617188 59.054688 229.066406 59.695312 229.578125 60.363281 C 230.125 61.035156 230.542969 61.640625 230.542969 61.738281 C 230.542969 61.832031 230.957031 62.535156 231.472656 63.304688 C 231.984375 64.070312 232.722656 65.25 233.105469 65.953125 C 233.492188 66.65625 234.101562 67.742188 234.453125 68.347656 C 236.089844 71.097656 239.453125 78.121094 241.121094 82.242188 C 241.667969 83.648438 242.339844 85.277344 242.597656 85.851562 C 242.855469 86.425781 243.046875 87.097656 243.046875 87.351562 C 243.046875 87.609375 243.238281 88.277344 243.496094 88.855469 C 244.9375 92.304688 247.148438 101.117188 248.304688 108.113281 C 249.875 117.535156 250.292969 131.429688 249.296875 140.019531 C 248.273438 148.675781 246.414062 157.714844 244.585938 163.046875 C 244.425781 163.558594 244.167969 164.421875 244.007812 164.964844 C 243.65625 166.210938 242.695312 168.957031 241.570312 171.894531 C 241.058594 173.171875 240.832031 173.8125 239.710938 176.367188 C 239.199219 177.613281 235.125 185.851562 234.710938 186.523438 C 234.515625 186.777344 233.875 187.929688 233.203125 189.078125 C 230.378906 194.0625 226.019531 200.257812 221.433594 205.847656 C 217.457031 210.636719 209.925781 218.046875 205.113281 221.878906 C 203.863281 222.902344 202.613281 223.921875 202.355469 224.148438 C 202.101562 224.371094 201.523438 224.816406 201.074219 225.105469 C 200.625 225.394531 199.148438 226.414062 197.835938 227.40625 C 195.109375 229.386719 195.398438 229.195312 190.621094 232.035156 C 188.699219 233.21875 186.871094 234.273438 186.613281 234.429688 C 185.941406 234.847656 177.699219 238.871094 176.511719 239.382812 C 176 239.605469 175.039062 240.019531 174.429688 240.277344 C 173.820312 240.53125 172.699219 240.980469 171.960938 241.265625 C 171.191406 241.554688 170.003906 242 169.296875 242.257812 C 165.738281 243.566406 164.9375 243.851562 160.640625 245.066406 C 154.355469 246.824219 148.234375 248.003906 140.441406 248.964844 C 135.726562 249.539062 119.117188 249.632812 115.589844 249.089844 C 114.371094 248.898438 112.191406 248.644531 110.78125 248.484375 C 105.90625 247.972656 96.0625 245.832031 91.542969 244.269531 C 91.03125 244.109375 90.164062 243.851562 89.621094 243.695312 C 88.6875 243.4375 87.792969 243.152344 85.289062 242.257812 C 80.417969 240.5 73.074219 237.144531 68.457031 234.589844 C 67.398438 233.984375 66.246094 233.34375 65.890625 233.152344 C 65.539062 232.960938 64.832031 232.546875 64.289062 232.195312 C 63.777344 231.84375 63.101562 231.460938 62.84375 231.332031 C 61.210938 230.566406 52.136719 224.113281 49.699219 222.007812 C 49.25 221.625 48.03125 220.570312 46.972656 219.644531 C 41.746094 215.171875 34.660156 207.730469 30.941406 202.8125 C 30.074219 201.660156 29.273438 200.671875 29.179688 200.574219 C 28.761719 200.191406 23.054688 191.792969 22.667969 190.996094 C 22.542969 190.738281 22.15625 190.066406 21.835938 189.558594 C 20.585938 187.640625 16.769531 180.261719 15.550781 177.421875 C 15.328125 176.878906 14.910156 175.953125 14.652344 175.34375 C 14.398438 174.738281 13.949219 173.714844 13.691406 173.109375 C 13.433594 172.5 12.953125 171.351562 12.664062 170.554688 C 12.152344 169.210938 11.894531 168.507812 10.902344 165.761719 C 10.710938 165.15625 10.390625 164.132812 10.261719 163.527344 C 10.132812 162.921875 9.875 161.960938 9.683594 161.449219 C 8.945312 159.214844 7.726562 154.105469 6.925781 149.953125 C 3.976562 134.304688 4.296875 115.84375 7.757812 101.566406 C 7.953125 100.765625 8.207031 99.554688 8.335938 98.851562 C 8.433594 98.148438 8.6875 97.0625 8.882812 96.457031 C 9.074219 95.847656 9.492188 94.476562 9.8125 93.421875 C 10.101562 92.367188 10.710938 90.484375 11.125 89.269531 C 11.574219 88.023438 12.023438 86.585938 12.183594 86.074219 C 12.921875 83.457031 17.988281 72.183594 19.558594 69.625 C 19.71875 69.371094 20.617188 67.839844 21.515625 66.273438 C 29.242188 52.953125 40.753906 39.921875 53.066406 30.597656 C 55.117188 29.0625 62.140625 24.273438 62.363281 24.273438 C 62.429688 24.273438 63.039062 23.890625 63.710938 23.441406 C 64.386719 22.996094 65.21875 22.484375 65.570312 22.324219 C 65.925781 22.164062 66.660156 21.75 67.175781 21.429688 C 69.417969 19.992188 80.511719 14.691406 81.21875 14.691406 C 81.441406 14.691406 81.761719 14.5625 81.925781 14.40625 C 82.246094 14.085938 84.359375 13.253906 86.09375 12.777344 C 86.636719 12.617188 88.082031 12.167969 89.296875 11.722656 C 93.019531 10.476562 96.867188 9.421875 101.164062 8.496094 C 107.09375 7.25 108.3125 7.027344 109.339844 7.027344 C 109.949219 7.027344 111.039062 6.867188 111.742188 6.675781 C 115.589844 5.683594 135.824219 5.589844 142.460938 6.546875 Z M 142.460938 6.546875 "/>
<path style=" stroke:none;fill-rule:nonzero;fill:rgb(0%,0%,0%);fill-opacity:1;" d="M 114.949219 15.203125 C 109.980469 15.839844 105.621094 16.578125 103.695312 17.121094 C 102.796875 17.375 101.804688 17.566406 101.484375 17.566406 C 100.90625 17.566406 98.210938 18.269531 96.351562 18.90625 C 95.839844 19.066406 94.878906 19.355469 94.269531 19.484375 C 93.179688 19.738281 92.3125 20.027344 89.621094 21.015625 C 88.914062 21.269531 87.757812 21.6875 87.054688 21.941406 C 86.347656 22.199219 85.355469 22.613281 84.875 22.867188 C 84.359375 23.125 83.816406 23.316406 83.65625 23.316406 C 83.078125 23.316406 76.152344 26.636719 72.625 28.617188 C 71.566406 29.191406 70.414062 29.832031 70.058594 30.023438 C 69.707031 30.214844 69.003906 30.628906 68.457031 30.980469 C 67.945312 31.332031 67.269531 31.714844 67.015625 31.84375 C 66.210938 32.226562 62.492188 34.8125 59.160156 37.304688 C 50.4375 43.851562 43.125 51.230469 36.359375 60.203125 C 33.570312 63.941406 31.421875 66.976562 31.421875 67.230469 C 31.421875 67.296875 31.039062 67.902344 30.589844 68.574219 C 30.140625 69.242188 29.628906 70.074219 29.46875 70.425781 C 29.304688 70.777344 28.890625 71.480469 28.570312 72.023438 C 27.929688 73.042969 23.984375 80.871094 23.214844 82.625 C 22.09375 85.246094 21.835938 85.851562 21.324219 87.191406 C 21.035156 87.992188 20.585938 89.109375 20.328125 89.683594 C 20.070312 90.257812 19.878906 90.929688 19.878906 91.183594 C 19.878906 91.441406 19.6875 92.113281 19.429688 92.6875 C 19.207031 93.261719 18.789062 94.539062 18.5 95.496094 C 16.671875 102.078125 16.351562 103.480469 16.03125 105.398438 C 15.902344 106.195312 15.648438 107.699219 15.453125 108.75 C 14.332031 114.691406 14.074219 118.398438 14.074219 127.753906 C 14.074219 137.175781 14.300781 140.179688 15.453125 146.441406 C 15.648438 147.492188 15.902344 148.996094 16.03125 149.792969 C 16.449219 152.378906 18.566406 160.429688 19.300781 162.25 C 19.496094 162.695312 19.75 163.464844 19.878906 164.007812 C 20.039062 164.515625 20.457031 165.761719 20.839844 166.722656 C 21.226562 167.679688 21.675781 168.925781 21.835938 169.5 C 21.996094 170.074219 22.285156 170.617188 22.445312 170.714844 C 22.636719 170.839844 22.765625 171.128906 22.765625 171.382812 C 22.765625 171.832031 25.234375 177.292969 25.972656 178.539062 C 26.132812 178.792969 26.644531 179.71875 27.09375 180.613281 C 27.542969 181.476562 28.023438 182.433594 28.183594 182.691406 C 28.34375 182.945312 29.242188 184.445312 30.203125 185.980469 C 31.132812 187.511719 32.128906 189.140625 32.386719 189.558594 C 33.28125 190.960938 36.875 196.074219 37.289062 196.488281 C 37.484375 196.710938 38.476562 197.894531 39.503906 199.140625 C 42.996094 203.449219 48.222656 208.816406 54.058594 214.023438 C 56.402344 216.097656 67.140625 223.765625 68.9375 224.625 C 69.195312 224.753906 70.285156 225.359375 71.34375 225.96875 C 74.355469 227.722656 81.988281 231.398438 85.226562 232.644531 C 90.355469 234.621094 92.023438 235.199219 96.511719 236.445312 C 111.9375 240.820312 129.410156 241.875 144.929688 239.351562 C 148.777344 238.742188 152.335938 238.007812 154.390625 237.464844 C 155.285156 237.242188 156.921875 236.792969 158.074219 236.507812 C 159.230469 236.1875 160.671875 235.773438 161.28125 235.550781 C 163.785156 234.6875 164.679688 234.367188 165.609375 234.113281 C 166.925781 233.730469 168.65625 233.058594 169.523438 232.578125 C 169.90625 232.355469 170.355469 232.195312 170.550781 232.195312 C 171.191406 232.195312 179.71875 228.109375 182.445312 226.511719 C 183.054688 226.160156 184.144531 225.550781 184.851562 225.167969 C 186.710938 224.148438 193.828125 219.421875 195.945312 217.792969 C 204.214844 211.402344 211.464844 204.21875 217.90625 195.945312 C 219.0625 194.476562 223.582031 187.863281 223.902344 187.160156 C 224.03125 186.90625 224.417969 186.234375 224.769531 185.722656 C 225.121094 185.179688 225.539062 184.480469 225.730469 184.128906 C 225.925781 183.777344 226.566406 182.625 227.175781 181.574219 C 229.003906 178.316406 231.695312 172.628906 232.914062 169.339844 C 233.203125 168.605469 233.652344 167.421875 233.90625 166.722656 C 235.253906 163.175781 235.605469 162.089844 236.730469 158.097656 C 240.320312 145.480469 241.699219 131.046875 240.546875 118.175781 C 239.902344 110.988281 238.460938 103.066406 236.824219 97.414062 C 236.570312 96.613281 236.152344 95.113281 235.832031 94.058594 C 235.511719 93.007812 235.0625 91.570312 234.804688 90.867188 C 234.515625 90.164062 234.132812 89.078125 233.90625 88.46875 C 232.273438 83.96875 229.035156 77.003906 226.339844 72.183594 C 225.347656 70.363281 225.1875 70.105469 223.007812 66.6875 C 221.949219 64.996094 218.933594 60.746094 217.621094 59.085938 C 217.394531 58.832031 216.722656 57.96875 216.144531 57.171875 C 212.425781 52.347656 204.121094 43.949219 199.597656 40.433594 C 198.734375 39.730469 197.933594 39.09375 197.835938 38.964844 C 197.515625 38.582031 192.417969 34.8125 192.222656 34.8125 C 192.097656 34.8125 191.453125 34.398438 190.8125 33.886719 C 190.171875 33.40625 188.152344 32.097656 186.292969 31.011719 C 184.433594 29.925781 182.703125 28.90625 182.445312 28.746094 C 181.835938 28.363281 173.660156 24.371094 172.183594 23.730469 C 171.574219 23.476562 170.644531 23.058594 170.164062 22.804688 C 169.652344 22.550781 169.011719 22.355469 168.6875 22.355469 C 168.402344 22.355469 167.984375 22.199219 167.792969 22.007812 C 167.597656 21.8125 166.957031 21.558594 166.378906 21.398438 C 165.773438 21.238281 164.296875 20.792969 163.046875 20.34375 C 159.039062 18.972656 154.964844 17.855469 151.34375 17.121094 C 150.027344 16.863281 147.847656 16.417969 146.53125 16.128906 C 145.21875 15.875 143.679688 15.648438 143.132812 15.648438 C 142.589844 15.648438 140.730469 15.425781 138.964844 15.171875 C 134.828125 14.5625 119.984375 14.5625 114.949219 15.203125 Z M 136.882812 18.207031 C 143.839844 18.84375 151.246094 20.183594 157.273438 21.910156 C 160.671875 22.898438 167.792969 25.261719 168.914062 25.839844 C 169.203125 25.964844 169.972656 26.316406 170.582031 26.574219 C 174.042969 28.074219 178.117188 30.023438 180.679688 31.492188 C 181.738281 32.066406 182.894531 32.707031 183.246094 32.898438 C 185.234375 33.949219 190.460938 37.433594 193.410156 39.667969 C 200.015625 44.652344 207.132812 51.390625 212.070312 57.332031 C 213.097656 58.542969 214.253906 59.917969 214.605469 60.363281 C 214.988281 60.8125 215.917969 62.058594 216.65625 63.144531 C 217.425781 64.261719 218.675781 66.082031 219.480469 67.230469 C 220.28125 68.382812 220.921875 69.371094 220.921875 69.46875 C 220.921875 69.53125 221.304688 70.136719 221.753906 70.808594 C 222.203125 71.480469 222.71875 72.308594 222.878906 72.660156 C 223.070312 73.011719 223.679688 74.160156 224.289062 75.214844 C 225.441406 77.261719 226.179688 78.730469 227.71875 82.082031 C 229.257812 85.40625 229.707031 86.523438 231.023438 90.066406 C 231.246094 90.675781 231.632812 91.761719 231.917969 92.464844 C 232.367188 93.707031 232.914062 95.5625 233.875 99.074219 C 234.132812 100 234.582031 101.566406 234.835938 102.554688 C 235.125 103.546875 235.351562 104.601562 235.351562 104.949219 C 235.351562 105.269531 235.542969 106.546875 235.800781 107.792969 C 237.242188 114.628906 237.433594 117.089844 237.402344 128.074219 C 237.371094 136.601562 237.242188 139.285156 236.824219 141.328125 C 236.535156 142.734375 236.3125 144.300781 236.3125 144.8125 C 236.3125 145.640625 235.800781 148.261719 234.964844 151.710938 C 234.773438 152.507812 234.515625 153.722656 234.355469 154.425781 C 234.195312 155.128906 233.78125 156.691406 233.425781 157.9375 C 233.042969 159.152344 232.625 160.589844 232.464844 161.132812 C 231.984375 162.761719 231.183594 164.933594 230.863281 165.507812 C 230.667969 165.828125 230.542969 166.335938 230.542969 166.625 C 230.542969 166.945312 230.316406 167.488281 230.058594 167.808594 C 229.804688 168.15625 229.578125 168.636719 229.578125 168.859375 C 229.578125 169.4375 225.636719 177.773438 224 180.613281 C 221.980469 184.160156 221.210938 185.46875 219.671875 187.800781 C 218.101562 190.195312 214.347656 195.371094 213.898438 195.785156 C 213.804688 195.882812 213.128906 196.648438 212.425781 197.542969 C 209.316406 201.46875 202.226562 208.527344 197.578125 212.363281 C 193.28125 215.875 187.703125 219.769531 183.085938 222.421875 C 181.933594 223.09375 180.777344 223.730469 180.519531 223.890625 C 178.246094 225.296875 169.074219 229.449219 165.449219 230.757812 C 163.078125 231.589844 162.050781 231.941406 161.121094 232.195312 C 160.609375 232.355469 159.742188 232.609375 159.199219 232.769531 C 158.683594 232.960938 157.433594 233.3125 156.472656 233.601562 C 155.511719 233.855469 153.90625 234.304688 152.914062 234.558594 C 151.917969 234.847656 150.863281 235.070312 150.507812 235.070312 C 150.1875 235.070312 148.96875 235.261719 147.816406 235.550781 C 141.753906 236.890625 138.644531 237.144531 127.453125 237.144531 C 116.234375 237.144531 114.726562 237.019531 106.613281 235.515625 C 102.1875 234.6875 94.972656 232.769531 91.863281 231.652344 C 91.160156 231.363281 90.066406 230.980469 89.457031 230.757812 C 85.898438 229.449219 84.777344 229 81.441406 227.46875 C 78.074219 225.9375 76.601562 225.199219 74.550781 224.050781 C 73.492188 223.445312 72.335938 222.804688 71.984375 222.613281 C 71.632812 222.421875 70.925781 222.007812 70.378906 221.65625 C 69.867188 221.304688 69.195312 220.921875 68.9375 220.792969 C 68.296875 220.507812 62.523438 216.546875 62.203125 216.226562 C 62.109375 216.128906 61.113281 215.332031 59.960938 214.46875 C 54.796875 210.574219 46.460938 202.683594 43.125 198.5 C 42.421875 197.605469 41.683594 196.742188 41.492188 196.582031 C 40.367188 195.59375 33.890625 186.234375 32.386719 183.488281 C 32.191406 183.136719 31.550781 181.988281 30.941406 180.933594 C 29.082031 177.644531 26.261719 171.765625 25.171875 168.957031 C 24.882812 168.15625 24.464844 167.074219 24.242188 166.5625 C 23.664062 165.1875 23.054688 163.527344 22.765625 162.410156 C 22.636719 161.867188 22.378906 161.101562 22.21875 160.652344 C 20.425781 156.214844 18.339844 145.671875 17.441406 136.601562 C 16.160156 123.730469 18.050781 106.929688 22.1875 94.699219 C 22.347656 94.15625 22.605469 93.292969 22.765625 92.78125 C 22.925781 92.238281 23.34375 91.027344 23.726562 90.066406 C 24.113281 89.109375 24.5625 87.863281 24.722656 87.289062 C 24.882812 86.714844 25.171875 86.171875 25.332031 86.074219 C 25.523438 85.949219 25.652344 85.660156 25.652344 85.40625 C 25.652344 84.957031 28.089844 79.496094 28.859375 78.25 C 29.019531 77.996094 29.46875 77.132812 29.851562 76.332031 C 31.421875 73.171875 35.910156 65.984375 37.773438 63.71875 C 37.898438 63.527344 38.507812 62.664062 39.117188 61.800781 C 39.726562 60.90625 40.527344 59.851562 40.914062 59.40625 C 41.296875 58.960938 42.582031 57.457031 43.765625 56.050781 C 46.332031 53.050781 52.136719 47.238281 55.3125 44.492188 C 59.480469 40.914062 67.6875 34.972656 69.898438 33.984375 C 70.15625 33.855469 70.605469 33.566406 70.863281 33.375 C 72.496094 32.035156 84.328125 26.253906 87.535156 25.230469 C 87.984375 25.070312 89.136719 24.65625 90.101562 24.273438 C 91.0625 23.890625 92.3125 23.476562 92.824219 23.316406 C 93.371094 23.15625 94.238281 22.898438 94.75 22.742188 C 100.296875 20.824219 110.300781 18.875 117.515625 18.269531 C 122.195312 17.855469 132.585938 17.820312 136.882812 18.207031 Z M 136.882812 18.207031 "/>
<path style=" stroke:none;fill-rule:nonzero;fill:rgb(0%,0%,0%);fill-opacity:1;" d="M 122.644531 25.839844 C 121.554688 26.0625 121.621094 25.421875 121.84375 34.75 C 121.941406 39.0625 121.90625 39.347656 121.265625 39.988281 C 120.816406 40.464844 120.046875 40.722656 118.828125 40.816406 C 117.226562 40.945312 116.96875 40.882812 116.136719 40.050781 C 115.269531 39.15625 115.238281 38.933594 114.820312 34.175781 C 114.597656 31.460938 114.308594 28.585938 114.179688 27.785156 C 113.988281 26.445312 113.925781 26.347656 113.027344 26.414062 C 110.621094 26.605469 110.523438 26.667969 110.75 28.679688 C 110.84375 29.671875 111.007812 32.066406 111.101562 34.015625 C 111.519531 41.808594 113.121094 44.074219 118.316406 44.074219 C 121.394531 44.074219 123.445312 43.214844 124.792969 41.394531 C 125.628906 40.210938 125.691406 39.957031 125.691406 36.859375 C 125.691406 33.089844 125.179688 27.339844 124.730469 26.253906 C 124.410156 25.519531 124.25 25.488281 122.644531 25.839844 Z M 122.644531 25.839844 "/>
<path style=" stroke:none;fill-rule:nonzero;fill:rgb(0%,0%,0%);fill-opacity:1;" d="M 132.585938 26.253906 C 132.519531 26.476562 132.394531 27.308594 132.328125 28.105469 C 132.167969 29.574219 131.785156 32.128906 130.917969 37.367188 C 130.660156 39.03125 130.5 41.042969 130.566406 41.839844 C 130.660156 43.246094 130.695312 43.277344 131.910156 43.371094 C 132.617188 43.4375 133.257812 43.308594 133.386719 43.117188 C 133.644531 42.703125 134.21875 39.285156 134.507812 36.378906 C 134.636719 35.386719 134.894531 34.300781 135.117188 34.015625 C 135.566406 33.40625 136.273438 33.601562 136.273438 34.367188 C 136.273438 34.589844 136.722656 35.738281 137.234375 36.890625 C 139.605469 41.96875 140.054688 42.988281 140.25 43.660156 C 140.410156 44.140625 140.890625 44.425781 142.074219 44.714844 C 144.257812 45.257812 144.511719 44.9375 144.898438 41.519531 C 145.1875 38.710938 145.570312 36.089844 146.4375 31.042969 C 146.789062 29.0625 146.855469 27.976562 146.628906 27.753906 C 146.179688 27.308594 144.222656 27.050781 143.742188 27.402344 C 143.519531 27.53125 143.199219 28.9375 143.007812 30.5 C 142.558594 34.398438 141.914062 37.847656 141.59375 37.847656 C 141.46875 37.847656 140.921875 36.824219 140.410156 35.613281 C 139.863281 34.367188 139.160156 32.738281 138.804688 31.9375 C 138.421875 31.140625 137.941406 30.023438 137.683594 29.480469 C 136.335938 26.445312 136.175781 26.253906 135.023438 26.0625 C 133.289062 25.773438 132.746094 25.839844 132.585938 26.253906 Z M 132.585938 26.253906 "/>
<path style=" stroke:none;fill-rule:nonzero;fill:rgb(0%,0%,0%);fill-opacity:1;" d="M 94.8125 30.628906 C 92.824219 31.363281 90.582031 33.214844 89.78125 34.8125 C 88.335938 37.625 89.234375 42.894531 91.574219 45.640625 C 93.273438 47.589844 94.941406 48.292969 97.796875 48.292969 C 102.027344 48.257812 105.585938 45.960938 106.484375 42.671875 C 106.964844 40.882812 106.613281 37.207031 105.78125 35.324219 C 103.886719 31.011719 99.238281 29.03125 94.8125 30.628906 Z M 99.429688 33.664062 C 101.257812 34.429688 102.253906 35.929688 102.925781 38.964844 C 103.4375 41.328125 102.863281 42.894531 101.035156 44.300781 C 97.347656 47.140625 93.050781 43.949219 92.890625 38.328125 C 92.824219 35.898438 93.5 34.6875 95.488281 33.792969 C 96.960938 33.121094 98.050781 33.089844 99.429688 33.664062 Z M 99.429688 33.664062 "/>
<path style=" stroke:none;fill-rule:nonzero;fill:rgb(0%,0%,0%);fill-opacity:1;" d="M 156.441406 30.949219 C 154.101562 31.429688 151.664062 33.855469 150.414062 37.015625 C 150.15625 37.65625 149.898438 39.222656 149.835938 40.53125 C 149.707031 42.511719 149.804688 43.148438 150.378906 44.300781 C 152.722656 48.960938 159.453125 50.335938 162.886719 46.789062 C 163.785156 45.863281 163.847656 45.671875 163.496094 45.097656 C 163.269531 44.746094 162.660156 44.234375 162.148438 43.914062 C 161.21875 43.371094 161.21875 43.371094 160.128906 44.425781 C 159.132812 45.386719 158.8125 45.511719 157.242188 45.480469 C 155.703125 45.480469 155.351562 45.351562 154.484375 44.457031 C 153.523438 43.53125 153.457031 43.308594 153.492188 41.296875 C 153.554688 38.679688 154.390625 36.570312 156.054688 34.972656 C 157.019531 34.046875 157.433594 33.855469 158.621094 33.855469 C 160.609375 33.855469 161.828125 34.652344 162.628906 36.507812 C 163.300781 38.070312 163.976562 38.488281 165.484375 38.261719 C 166.925781 38.070312 166.476562 34.941406 164.808594 33.28125 C 162.855469 31.332031 159.359375 30.34375 156.441406 30.949219 Z M 156.441406 30.949219 "/>
<path style=" stroke:none;fill-rule:nonzero;fill:rgb(0%,0%,0%);fill-opacity:1;" d="M 173.242188 37.433594 C 172.730469 38.230469 172.214844 39.15625 171.382812 40.722656 C 170.902344 41.585938 170.066406 43.179688 169.457031 44.234375 C 168.882812 45.289062 168.082031 46.789062 167.664062 47.589844 C 167.277344 48.386719 166.605469 49.570312 166.1875 50.207031 C 165.128906 51.933594 165.226562 52.601562 166.605469 53.179688 C 168.335938 53.882812 168.527344 53.816406 169.457031 51.964844 C 169.90625 51.070312 170.773438 49.441406 171.320312 48.386719 C 173.46875 44.457031 175.199219 41.328125 175.777344 40.308594 C 176.640625 38.710938 176.511719 38.101562 175.199219 37.527344 C 173.789062 36.953125 173.5625 36.921875 173.242188 37.433594 Z M 173.242188 37.433594 "/>
<path style=" stroke:none;fill-rule:nonzero;fill:rgb(0%,0%,0%);fill-opacity:1;" d="M 76.570312 39.378906 C 75.734375 39.605469 74.871094 39.957031 74.644531 40.148438 C 74.453125 40.371094 74.101562 40.5625 73.875 40.5625 C 73.332031 40.5625 71.277344 42.925781 70.734375 44.171875 C 69.898438 46.214844 69.835938 47.207031 70.414062 49.121094 C 71.3125 52.027344 73.234375 54.710938 75.480469 56.148438 C 76.632812 56.882812 77.113281 56.980469 79.519531 56.980469 C 82.308594 56.980469 83.109375 56.691406 85.289062 54.871094 C 86.957031 53.496094 87.792969 50.941406 87.375 48.546875 C 87.117188 47.078125 86.636719 46.949219 84.808594 47.8125 C 83.785156 48.292969 83.6875 48.453125 83.878906 49.378906 C 84.328125 51.804688 82.46875 53.976562 79.96875 53.976562 C 78.042969 53.976562 76.375 52.667969 74.742188 49.886719 C 73.972656 48.578125 73.746094 47.8125 73.746094 46.472656 C 73.746094 44.875 73.8125 44.714844 75.09375 43.628906 C 76.152344 42.734375 76.699219 42.480469 77.722656 42.480469 C 78.429688 42.480469 79.230469 42.703125 79.550781 42.988281 C 80.222656 43.597656 81.027344 43.246094 82.050781 41.9375 L 82.726562 41.105469 L 82.085938 40.371094 C 81.699219 39.988281 80.992188 39.605469 80.480469 39.507812 C 80 39.378906 79.261719 39.253906 78.84375 39.15625 C 78.429688 39.09375 77.402344 39.1875 76.570312 39.378906 Z M 76.570312 39.378906 "/>
<path style=" stroke:none;fill-rule:nonzero;fill:rgb(0%,0%,0%);fill-opacity:1;" d="M 181.097656 42.542969 C 180.679688 43.085938 178.371094 46.214844 175.96875 49.441406 C 173.53125 52.699219 171.640625 55.476562 171.734375 55.636719 C 171.863281 55.828125 173.402344 57.011719 175.199219 58.320312 C 182.027344 63.269531 181.707031 63.109375 182.574219 61.800781 C 183.277344 60.746094 183.214844 60.140625 182.378906 59.695312 C 181.964844 59.503906 180.457031 58.449219 179.015625 57.394531 C 177.121094 56.019531 176.449219 55.351562 176.609375 54.96875 C 176.707031 54.679688 177.601562 53.371094 178.597656 52.058594 C 179.589844 50.75 180.90625 48.960938 181.515625 48.132812 C 182.125 47.269531 182.988281 46.054688 183.472656 45.417969 C 183.953125 44.777344 184.335938 44.011719 184.367188 43.722656 C 184.367188 43.277344 182.476562 41.519531 181.996094 41.519531 C 181.898438 41.519531 181.484375 41.96875 181.097656 42.542969 Z M 181.097656 42.542969 "/>
<path style=" stroke:none;fill-rule:nonzero;fill:rgb(0%,0%,0%);fill-opacity:1;" d="M 49.925781 61.257812 C 48.800781 62.441406 48.832031 62.984375 50.117188 64.039062 C 50.660156 64.515625 52.585938 66.242188 54.347656 67.871094 C 59.640625 72.726562 60.984375 73.9375 61.46875 74.195312 C 61.789062 74.386719 62.269531 74.097656 63.101562 73.234375 C 68.394531 67.773438 69.898438 66.082031 69.898438 65.539062 C 69.898438 65.21875 69.546875 64.613281 69.128906 64.230469 L 68.359375 63.496094 L 65.667969 66.273438 C 64.222656 67.804688 62.75 69.179688 62.429688 69.339844 C 61.691406 69.753906 61.660156 69.722656 52.359375 61.066406 C 51.367188 60.140625 50.949219 60.171875 49.925781 61.257812 Z M 49.925781 61.257812 "/>
<path style=" stroke:none;fill-rule:nonzero;fill:rgb(0%,0%,0%);fill-opacity:1;" d="M 120.242188 61.324219 C 116.199219 62.441406 112.960938 64.738281 110.683594 68.0625 C 108.890625 70.710938 108.472656 72.246094 108.214844 77.292969 C 108.089844 79.847656 107.863281 82.242188 107.703125 82.65625 C 107.542969 83.074219 106.804688 84.09375 106.101562 84.925781 C 104.59375 86.683594 103.917969 88.597656 102.15625 96.199219 C 101.515625 98.945312 101.484375 106.355469 102.09375 110.316406 C 102.925781 115.523438 103.34375 120.539062 103.117188 122.804688 C 102.542969 129.320312 102.507812 134.207031 103.023438 137.753906 C 104.496094 147.78125 104.5625 148.613281 104.242188 150.75 C 104.046875 151.902344 103.726562 155.253906 103.566406 158.226562 C 103.40625 161.226562 103.183594 163.878906 103.085938 164.164062 C 102.988281 164.453125 102.796875 167.457031 102.605469 170.839844 C 102.445312 174.257812 102.253906 177.101562 102.15625 177.164062 C 101.898438 177.421875 100.617188 176.589844 96.320312 173.363281 C 93.5 171.257812 90.613281 169.46875 87.664062 167.964844 C 78.429688 163.273438 77.914062 162.152344 81.796875 154.839844 C 83.625 151.359375 84.554688 143.023438 83.558594 138.902344 C 83.046875 136.730469 82.695312 136.058594 80.929688 133.824219 C 79.582031 132.132812 79.550781 131.972656 79.261719 128.839844 C 78.972656 125.519531 79.359375 121.273438 80.0625 119.929688 C 80.351562 119.324219 80.578125 118.84375 81.925781 115.777344 C 83.589844 111.976562 84.039062 110.667969 84.328125 108.527344 C 84.679688 105.910156 84.296875 104.472656 82.53125 101.886719 C 81.667969 100.640625 80.640625 99.011719 80.257812 98.277344 C 79.550781 96.902344 79.292969 94.730469 79.808594 94.410156 C 79.9375 94.316406 80.609375 93.355469 81.25 92.269531 C 82.277344 90.578125 82.40625 90.097656 82.40625 88.183594 C 82.40625 86.300781 82.277344 85.820312 81.25 84.128906 C 79.9375 81.921875 77.433594 79.304688 75.863281 78.441406 C 73.90625 77.386719 72.816406 78.15625 72.785156 80.550781 C 72.785156 81.253906 72.335938 81.761719 70.667969 83.105469 C 68.457031 84.828125 67.015625 87.066406 67.015625 88.789062 C 67.015625 90.640625 65.15625 92.175781 61.722656 93.164062 C 60.570312 93.515625 53.867188 99.523438 53.867188 100.222656 C 53.867188 102.203125 57.554688 103.578125 63.9375 103.960938 C 65.699219 104.058594 68.199219 104.3125 69.484375 104.503906 L 71.824219 104.824219 L 71.824219 113.09375 L 70.445312 116.035156 C 68.96875 119.164062 68.394531 120.632812 68.007812 122.167969 C 67.878906 122.710938 67.589844 123.410156 67.429688 123.761719 C 66.179688 126.09375 65.890625 127.339844 65.925781 130.3125 C 65.925781 132.484375 66.085938 133.632812 66.46875 134.367188 C 66.757812 134.941406 67.015625 135.644531 67.046875 135.964844 C 67.046875 136.28125 67.367188 137.144531 67.75 137.878906 C 70.667969 143.4375 70.863281 144.042969 70.863281 147.8125 C 70.863281 149.699219 70.703125 151.742188 70.542969 152.347656 C 69.898438 154.550781 69.289062 161.578125 69.066406 169.117188 C 68.839844 177.386719 68.96875 178.601562 70.636719 182.050781 C 71.664062 184.222656 75.765625 188.089844 79.359375 190.261719 C 81.28125 191.441406 85.386719 193.199219 87.695312 193.867188 C 88.242188 194.027344 90.742188 194.890625 93.304688 195.785156 C 95.871094 196.679688 98.597656 197.574219 99.398438 197.734375 C 101.164062 198.117188 105.332031 197.796875 106.515625 197.191406 C 106.996094 196.933594 108.023438 196.742188 108.824219 196.742188 C 109.980469 196.742188 110.492188 196.96875 111.613281 197.863281 C 113.667969 199.585938 114.050781 199.714844 117.515625 199.875 C 120.464844 200 120.753906 199.96875 121.332031 199.332031 C 122.035156 198.53125 123.671875 198.4375 124.601562 199.140625 C 125.019531 199.457031 126.074219 199.585938 128.128906 199.617188 C 131.527344 199.617188 132.328125 199.203125 133.195312 197.0625 C 133.773438 195.59375 134.605469 195.402344 136.367188 196.328125 C 136.976562 196.617188 138.195312 196.871094 139.382812 196.871094 C 141.050781 196.902344 141.46875 196.777344 142.171875 196.136719 C 142.621094 195.691406 143.007812 195.210938 143.007812 195.019531 C 143.007812 194.347656 144.386719 191.921875 144.929688 191.632812 C 145.507812 191.3125 148.554688 191.890625 149.515625 192.496094 C 150.574219 193.167969 153.296875 193.835938 154.964844 193.867188 C 157.433594 193.867188 159.007812 193.039062 160.640625 190.835938 C 161.796875 189.300781 162.085938 189.078125 163.046875 189.078125 C 163.65625 189.078125 164.9375 189.460938 165.867188 189.910156 C 170.804688 192.335938 173.210938 192.175781 176.097656 189.269531 C 177.988281 187.320312 178.566406 186.265625 177.957031 185.882812 C 176.929688 185.214844 173.402344 185.820312 172.441406 186.777344 C 171.800781 187.417969 170.421875 187.226562 168.335938 186.171875 C 166.894531 185.46875 166.125 185.246094 165.417969 185.40625 C 163.785156 185.757812 162.726562 185.308594 161.601562 183.777344 C 160.707031 182.53125 160.417969 182.339844 159.710938 182.46875 C 158.429688 182.722656 156.792969 183.394531 155.125 184.351562 C 153.621094 185.277344 151.855469 185.53125 151.503906 184.894531 C 151.183594 184.414062 152.304688 183.328125 153.105469 183.328125 C 153.492188 183.328125 154.101562 183.074219 154.421875 182.753906 C 155.320312 181.988281 156.472656 180.261719 156.472656 179.785156 C 156.472656 178.859375 157.628906 176.621094 158.171875 176.429688 C 159.261719 176.078125 160.769531 176.621094 162.019531 177.738281 C 162.660156 178.347656 163.816406 178.984375 164.585938 179.210938 C 165.324219 179.402344 166.445312 179.753906 167.054688 179.976562 C 167.664062 180.199219 169.042969 180.613281 170.101562 180.902344 C 175.421875 182.371094 177.378906 183.105469 178.660156 184.191406 C 179.140625 184.605469 179.367188 184.511719 180.746094 183.234375 C 181.578125 182.46875 182.734375 181.605469 183.246094 181.316406 C 184.433594 180.710938 188.023438 179.496094 188.601562 179.496094 C 189.402344 179.496094 192.03125 177.421875 192.511719 176.398438 C 193.25 174.867188 193.25 165.445312 192.511719 162.921875 C 191.292969 158.703125 190.269531 156.980469 188.121094 155.636719 C 186.035156 154.296875 183.183594 153.082031 181.417969 152.761719 C 179.558594 152.414062 179.65625 153.339844 179.300781 130.726562 C 179.109375 117.632812 179.078125 109.390625 179.269531 108.558594 C 179.464844 107.824219 179.976562 106.707031 180.488281 106.070312 C 180.96875 105.429688 181.933594 104.023438 182.574219 102.90625 C 183.34375 101.660156 185.457031 99.234375 188.214844 96.519531 C 192.640625 92.144531 193.667969 90.675781 193.667969 88.789062 C 193.667969 87.417969 192.800781 86.9375 189.882812 86.683594 C 188.410156 86.554688 187.160156 86.332031 187.0625 86.171875 C 186.964844 86.011719 187.320312 85.246094 187.863281 84.414062 C 188.410156 83.585938 188.859375 82.625 188.859375 82.242188 C 188.859375 81.027344 187.542969 79.976562 185.78125 79.75 C 182.378906 79.304688 180.328125 80.582031 178.597656 84.285156 C 176.707031 88.246094 176.546875 88.503906 175.902344 88.886719 C 175.488281 89.078125 173.019531 89.269531 169.78125 89.300781 C 163.65625 89.398438 161.25 89.90625 159.582031 91.441406 C 158.75 92.207031 158.652344 92.496094 158.8125 93.582031 C 158.941406 94.699219 160.03125 97.222656 161.058594 98.851562 C 161.859375 100.128906 165.066406 104.3125 165.578125 104.726562 C 165.867188 104.949219 166.09375 105.269531 166.09375 105.429688 C 166.09375 105.558594 166.542969 106.324219 167.085938 107.121094 C 168.015625 108.527344 168.082031 108.785156 168.367188 113.445312 C 169.171875 126.316406 169.332031 129.351562 169.621094 140.339844 L 169.90625 152.125 L 169.203125 152.859375 C 168.816406 153.242188 167.886719 153.882812 167.117188 154.296875 C 164.167969 155.925781 162.855469 156.789062 160.929688 158.480469 C 159.96875 159.3125 158.84375 160.269531 158.398438 160.652344 C 157.949219 161.035156 156.730469 162.027344 155.671875 162.824219 C 154.613281 163.65625 153.621094 164.453125 153.425781 164.644531 C 153.265625 164.867188 152.464844 165.507812 151.664062 166.082031 C 150.863281 166.65625 150.09375 167.328125 149.898438 167.519531 C 149.738281 167.710938 148.359375 168.796875 146.855469 169.914062 C 145.347656 171.03125 144.0625 172.023438 143.96875 172.117188 C 143.421875 172.726562 141.628906 173.746094 141.019531 173.84375 L 140.28125 173.90625 L 140.183594 148.132812 L 140.121094 122.390625 L 141.304688 121.367188 C 141.980469 120.824219 142.878906 120.3125 143.328125 120.21875 C 143.777344 120.121094 144.351562 119.929688 144.609375 119.769531 C 145.957031 118.941406 147.527344 118.398438 149.257812 118.175781 C 152.851562 117.726562 156.503906 115.425781 157.820312 112.808594 C 158.492188 111.402344 158.558594 110.921875 158.558594 105.71875 C 158.558594 100.257812 158.523438 100.097656 157.722656 98.851562 C 156.699219 97.253906 155.765625 95.273438 154.835938 92.6875 C 154.324219 91.152344 153.8125 90.417969 152.785156 89.589844 C 152.046875 88.980469 151.3125 88.46875 151.183594 88.46875 C 151.023438 88.46875 150.667969 88.246094 150.347656 87.960938 C 149.933594 87.578125 149.164062 87.449219 147.589844 87.449219 C 145.476562 87.449219 145.378906 87.511719 144.351562 88.664062 C 143.777344 89.332031 143.070312 90.324219 142.8125 90.835938 C 141.949219 92.464844 141.402344 96.679688 141.402344 101.886719 C 141.402344 107.1875 141.242188 108.273438 140.570312 108.273438 C 139.703125 108.273438 139.414062 106.835938 139.253906 101.277344 C 139.160156 97.894531 138.933594 95.464844 138.710938 95.210938 C 138.515625 94.953125 137.875 94.570312 137.332031 94.316406 L 136.273438 93.898438 L 136.273438 91.25 C 136.273438 89.78125 136.464844 87.863281 136.722656 87 C 138.164062 81.730469 138.226562 81.09375 138.101562 74.898438 C 137.972656 67.804688 137.78125 67.039062 135.4375 64.644531 C 132.070312 61.195312 125.722656 59.820312 120.242188 61.324219 Z M 132.90625 69.976562 C 133.449219 70.296875 134.253906 71.03125 134.667969 71.605469 C 135.375 72.566406 135.4375 72.949219 135.4375 75.917969 C 135.40625 78.378906 135.277344 79.367188 134.894531 79.976562 C 134.574219 80.421875 134.347656 80.996094 134.347656 81.21875 C 134.347656 81.957031 129.410156 86.171875 127.902344 86.746094 C 127.132812 87.035156 125.914062 87.351562 125.210938 87.417969 C 124.503906 87.511719 123.640625 87.800781 123.285156 88.023438 C 122.933594 88.277344 122.324219 88.46875 121.90625 88.46875 C 121.042969 88.46875 118.378906 90.132812 117.675781 91.152344 C 117.003906 92.113281 116.425781 95.335938 116.105469 99.96875 C 115.976562 102.171875 115.6875 104.375 115.496094 104.855469 C 115.269531 105.367188 115.109375 106.996094 115.109375 108.496094 C 115.109375 112.746094 114.117188 112.425781 127.390625 112.425781 C 138.871094 112.425781 138.964844 112.425781 141.402344 113.671875 C 142.429688 114.214844 142.109375 115.203125 140.472656 116.609375 C 138.484375 118.332031 137.84375 118.460938 131.140625 118.8125 C 122.484375 119.226562 115.464844 119.164062 113.988281 118.652344 C 113.28125 118.398438 112.351562 118.175781 111.9375 118.175781 C 111.007812 118.175781 108.375 116.097656 108.375 115.363281 C 108.375 115.074219 108.152344 114.246094 107.894531 113.542969 C 107.351562 111.976562 107.253906 101.152344 107.765625 99.171875 C 107.960938 98.46875 108.183594 97.445312 108.28125 96.933594 C 108.472656 95.914062 109.851562 94.21875 110.523438 94.21875 C 111.230469 94.21875 111.582031 93.039062 111.582031 90.640625 C 111.582031 89.363281 111.777344 87.800781 112 87.128906 C 112.417969 85.949219 114.660156 83.519531 116.808594 81.921875 C 118.15625 80.933594 119.917969 78.503906 119.917969 77.644531 C 119.917969 77.355469 120.144531 76.8125 120.402344 76.460938 C 120.65625 76.140625 120.882812 75.535156 120.882812 75.183594 C 120.882812 74.800781 121.105469 74.320312 121.363281 74.097656 C 121.621094 73.875 121.84375 73.460938 121.84375 73.140625 C 121.84375 72.4375 124.601562 69.660156 125.5 69.46875 C 127.167969 69.117188 127.902344 69.082031 129.828125 69.210938 C 130.980469 69.308594 132.328125 69.660156 132.90625 69.976562 Z M 76.824219 85.882812 C 77.304688 87.417969 76.792969 88.886719 75.285156 90.226562 C 74.613281 90.835938 73.90625 91.34375 73.746094 91.34375 C 73.554688 91.34375 73.042969 90.992188 72.625 90.546875 C 71.917969 89.875 71.824219 89.492188 71.824219 87.417969 C 71.824219 86.140625 71.917969 84.957031 72.046875 84.828125 C 72.175781 84.703125 73.234375 84.636719 74.390625 84.703125 C 76.441406 84.796875 76.472656 84.796875 76.824219 85.882812 Z M 149.164062 95.402344 C 149.644531 95.847656 149.738281 96.421875 149.738281 99.394531 C 149.738281 102.429688 149.804688 102.875 150.316406 103.035156 C 152.175781 103.640625 152.625 103.929688 152.625 104.503906 C 152.625 105.492188 150.636719 106.132812 147.878906 105.972656 C 145.988281 105.878906 145.410156 105.75 145.058594 105.238281 C 144.417969 104.375 144.480469 104.183594 145.730469 103.449219 L 146.855469 102.78125 L 146.855469 99.328125 C 146.855469 96.613281 146.949219 95.753906 147.367188 95.371094 C 148.007812 94.730469 148.425781 94.730469 149.164062 95.402344 Z M 126.074219 97 C 127.101562 98.242188 127.421875 99.585938 126.972656 101.023438 C 126.71875 101.757812 126.332031 102.585938 126.109375 102.875 C 125.882812 103.128906 125.691406 103.515625 125.691406 103.671875 C 125.660156 103.832031 125.339844 104.375 124.921875 104.855469 C 124.34375 105.589844 123.960938 105.75 123.09375 105.652344 C 121.652344 105.527344 121.554688 104.757812 122.675781 102.492188 C 123.191406 101.535156 123.640625 100.03125 123.703125 99.074219 C 123.800781 97.828125 124.023438 97.285156 124.503906 96.933594 C 125.371094 96.328125 125.5 96.328125 126.074219 97 Z M 66.371094 97.988281 L 67.109375 98.59375 L 66.117188 99.265625 C 65.15625 99.96875 62.621094 100.222656 61.433594 99.777344 C 60.699219 99.488281 60.792969 98.5 61.628906 97.925781 C 62.652344 97.191406 65.476562 97.253906 66.371094 97.988281 Z M 171.671875 98.882812 C 172.3125 99.488281 172.3125 99.617188 171.640625 100.351562 C 170.871094 101.214844 168.304688 101.152344 167.757812 100.257812 C 167.40625 99.679688 167.40625 99.488281 167.886719 98.980469 C 168.59375 98.210938 170.933594 98.148438 171.671875 98.882812 Z M 133.898438 103.671875 C 134.414062 104.40625 134.414062 104.566406 133.933594 105.527344 C 132.96875 107.539062 131.269531 107.25 131.558594 105.109375 C 131.847656 102.84375 132.9375 102.171875 133.898438 103.671875 Z M 175.101562 103.800781 C 175.582031 104.089844 175.710938 104.503906 175.710938 105.910156 C 175.710938 107.472656 175.648438 107.664062 174.878906 107.953125 C 173.402344 108.527344 172.824219 107.890625 172.824219 105.71875 C 172.824219 103.898438 173.019531 103.578125 174.042969 103.515625 C 174.269531 103.480469 174.75 103.640625 175.101562 103.800781 Z M 149.355469 112.394531 C 149.609375 112.519531 149.738281 113 149.675781 113.414062 C 149.609375 113.988281 149.289062 114.246094 148.394531 114.46875 C 146.339844 114.980469 144.386719 113.542969 145.730469 112.550781 C 146.40625 112.074219 148.679688 111.976562 149.355469 112.394531 Z M 112.511719 127.5 C 112.929688 128.523438 111.839844 129.320312 110.074219 129.351562 C 108.570312 129.351562 107.863281 128.585938 108.214844 127.4375 C 108.375 126.894531 108.730469 126.796875 110.332031 126.796875 C 112.03125 126.796875 112.289062 126.894531 112.511719 127.5 Z M 124.535156 130.46875 C 125.5625 130.917969 125.691406 131.078125 125.691406 132.132812 C 125.691406 133.21875 125.304688 133.664062 118.957031 139.828125 C 115.238281 143.40625 112.289062 146.472656 112.417969 146.632812 C 112.707031 147.109375 114.660156 146.949219 115.109375 146.441406 C 115.335938 146.183594 115.785156 145.960938 116.105469 145.960938 C 116.425781 145.960938 116.777344 145.800781 116.875 145.609375 C 117.003906 145.449219 117.417969 145.128906 117.773438 144.96875 C 118.15625 144.8125 118.925781 144.394531 119.4375 144.042969 C 119.984375 143.691406 120.6875 143.277344 121.042969 143.117188 C 122.484375 142.449219 124.410156 140.402344 126.492188 137.273438 C 129.316406 133.089844 130.886719 131.589844 132.488281 131.589844 C 133.355469 131.589844 133.773438 131.78125 134.027344 132.195312 C 134.21875 132.609375 134.347656 137.335938 134.347656 145.417969 C 134.347656 157.683594 134.316406 158 133.707031 158.578125 C 132.199219 159.949219 128.640625 160.460938 127.550781 159.472656 C 126.71875 158.734375 126.8125 158.191406 128.191406 156.371094 C 130.050781 153.882812 130.277344 153.148438 130.4375 149.15625 C 130.597656 145.066406 130.371094 144.460938 128.800781 144.84375 C 127.648438 145.128906 123.351562 149.410156 120.496094 153.148438 C 119.695312 154.199219 118.703125 155.382812 118.285156 155.765625 C 117.164062 156.757812 114.53125 157.523438 112.546875 157.394531 C 110.972656 157.300781 110.75 157.203125 110.203125 156.246094 C 109.753906 155.476562 109.5625 154.519531 109.53125 152.859375 C 109.5 150.785156 109.59375 150.433594 110.398438 149.378906 C 110.878906 148.769531 111.261719 148.132812 111.261719 148.035156 C 111.261719 147.910156 110.84375 147.269531 110.300781 146.597656 C 109.789062 145.929688 109.339844 145.035156 109.339844 144.621094 C 109.339844 143.535156 110.429688 141.554688 111.839844 140.050781 C 112.511719 139.347656 114.085938 137.5625 115.335938 136.058594 C 117.804688 133.089844 119.792969 131.011719 120.753906 130.40625 C 121.621094 129.863281 123.160156 129.894531 124.535156 130.46875 Z M 113.570312 133.375 C 113.925781 134.113281 113.828125 134.269531 112.832031 135.261719 C 111.390625 136.667969 110.492188 136.824219 110.363281 135.707031 C 110.300781 135.101562 110.589844 134.527344 111.359375 133.695312 C 112.671875 132.324219 113.058594 132.257812 113.570312 133.375 Z M 115.945312 162.730469 C 116.265625 162.984375 116.875 163.207031 117.226562 163.207031 C 117.609375 163.207031 118.09375 163.429688 118.316406 163.6875 C 118.542969 163.941406 118.863281 164.164062 119.023438 164.164062 C 119.695312 164.164062 120.882812 165.636719 120.882812 166.464844 C 120.882812 167.519531 119.34375 168.765625 117.675781 169.085938 C 111.9375 170.171875 111.167969 170.074219 109.980469 168.09375 C 108.890625 166.242188 109.242188 163.972656 110.878906 162.632812 C 111.582031 162.089844 115.140625 162.121094 115.945312 162.730469 Z M 185.492188 165.1875 C 185.585938 165.761719 185.652344 167.457031 185.585938 168.925781 C 185.492188 171.734375 185.074219 172.5 183.917969 172.054688 C 183.503906 171.894531 183.40625 171.289062 183.40625 168.222656 C 183.40625 166.210938 183.503906 164.484375 183.632812 164.390625 C 183.726562 164.261719 184.175781 164.164062 184.5625 164.164062 C 185.136719 164.164062 185.332031 164.390625 185.492188 165.1875 Z M 179.398438 168.316406 L 179.398438 171.671875 L 178.597656 171.671875 C 177.796875 171.671875 177.796875 171.640625 177.699219 168.667969 C 177.601562 165.15625 177.699219 164.707031 178.660156 164.867188 C 179.367188 164.964844 179.398438 165.09375 179.398438 168.316406 Z M 131.75 165.699219 C 132.199219 166.5625 132.585938 177.964844 132.167969 178.730469 C 131.976562 179.082031 131.140625 179.59375 130.277344 179.878906 C 128.992188 180.328125 127.359375 180.390625 120.046875 180.359375 C 113.21875 180.296875 111.261719 180.199219 110.84375 179.847656 C 110.203125 179.335938 110.074219 175.695312 110.683594 175.089844 C 110.941406 174.832031 112.578125 174.707031 115.976562 174.707031 C 121.296875 174.707031 121.652344 174.609375 123.445312 172.757812 C 123.894531 172.308594 125.113281 171.191406 126.203125 170.296875 C 127.261719 169.371094 128.707031 167.839844 129.410156 166.878906 C 130.726562 165.027344 131.238281 164.773438 131.75 165.699219 Z M 168.144531 166.371094 C 168.816406 167.105469 168.625 168.09375 167.597656 169.179688 C 166.765625 170.105469 165.578125 170.136719 165.097656 169.242188 C 164.714844 168.476562 165.003906 166.371094 165.546875 166.019531 C 166.253906 165.570312 167.597656 165.761719 168.144531 166.371094 Z M 83.140625 176.015625 C 85.546875 177.195312 88.6875 179.878906 88.367188 180.421875 C 88.113281 180.839844 85.996094 180.679688 84.070312 180.070312 C 83.046875 179.785156 79.9375 177.355469 79.453125 176.496094 C 79.039062 175.757812 79.519531 175.023438 80.386719 175.023438 C 80.832031 175.023438 82.050781 175.472656 83.140625 176.015625 Z M 150.828125 175.34375 C 151.535156 175.601562 151.664062 175.855469 151.664062 176.941406 C 151.664062 178.15625 151.566406 178.25 150.378906 178.730469 C 149.675781 179.015625 148.9375 179.527344 148.746094 179.847656 C 148.359375 180.613281 146.179688 180.679688 145.441406 179.945312 C 144.671875 179.210938 144.800781 178.601562 146.085938 177.070312 C 147.496094 175.3125 149.195312 174.707031 150.828125 175.34375 Z M 177.316406 175.472656 C 178.179688 175.792969 178.4375 176.046875 178.4375 176.621094 C 178.4375 177.582031 177.636719 177.835938 174.269531 177.867188 C 171.445312 177.898438 170.101562 177.453125 170.101562 176.460938 C 170.101562 175.25 174.910156 174.609375 177.316406 175.472656 Z M 137.363281 177.773438 C 137.746094 177.929688 137.875 178.410156 137.875 179.71875 C 137.875 182.660156 136.753906 183.9375 134.957031 183.011719 C 133.898438 182.433594 134.125 180.101562 135.34375 178.699219 C 136.367188 177.515625 136.527344 177.453125 137.363281 177.773438 Z M 114.339844 184.542969 C 114.5 184.671875 114.980469 185.277344 115.335938 185.882812 C 116.328125 187.511719 117.835938 188.855469 119.375 189.429688 C 121.105469 190.101562 121.332031 191.058594 119.917969 191.632812 C 118.445312 192.238281 111.96875 191.378906 111.007812 190.417969 C 109.144531 188.566406 109.210938 186.074219 111.199219 184.863281 C 112.128906 184.320312 113.761719 184.128906 114.339844 184.542969 Z M 127.742188 184.894531 C 128.992188 186.265625 127.582031 187.863281 125.5625 187.351562 C 124.921875 187.195312 124.730469 186.9375 124.730469 186.300781 C 124.730469 184.542969 126.621094 183.648438 127.742188 184.894531 Z M 85.226562 186.777344 C 86.1875 187.992188 85.003906 190.675781 83.527344 190.675781 C 82.886719 190.675781 81.699219 190.066406 81.378906 189.589844 C 80.671875 188.566406 81.316406 186.492188 82.40625 186.109375 C 83.175781 185.851562 84.777344 186.234375 85.226562 186.777344 Z M 135.214844 188.503906 C 136.367188 189.621094 136.5625 190.675781 135.757812 191.441406 C 135.117188 192.082031 134.507812 192.082031 133.355469 191.410156 C 132.585938 190.929688 132.425781 190.644531 132.425781 189.558594 C 132.425781 187.289062 133.515625 186.875 135.214844 188.503906 Z M 98.886719 189.75 C 100.519531 190.484375 100.746094 193.292969 99.207031 193.867188 C 98.339844 194.21875 96.511719 193.996094 94.8125 193.359375 C 94.140625 193.101562 92.761719 192.910156 91.800781 192.941406 C 89.394531 193.039062 88.625 192.046875 89.875 190.417969 C 90.066406 190.164062 91.222656 190.035156 93.433594 190.035156 C 95.199219 190.035156 96.898438 189.875 97.15625 189.71875 C 97.761719 189.332031 97.925781 189.332031 98.886719 189.75 Z M 98.886719 189.75 "/>
<path style=" stroke:none;fill-rule:nonzero;fill:rgb(0%,0%,0%);fill-opacity:1;" d="M 126.683594 73.234375 C 126.269531 73.425781 125.753906 74.066406 125.53125 74.609375 C 125.144531 75.566406 125.179688 75.695312 126.074219 76.78125 C 127.328125 78.3125 128.769531 78.378906 129.988281 76.941406 C 131.238281 75.472656 131.015625 74.097656 129.316406 73.203125 C 128.417969 72.726562 127.648438 72.726562 126.683594 73.234375 Z M 126.683594 73.234375 "/>
<path style=" stroke:none;fill-rule:nonzero;fill:rgb(0%,0%,0%);fill-opacity:1;" d="M 197.964844 61.257812 C 195.878906 62.121094 193.539062 64.039062 192.222656 65.953125 C 191.070312 67.582031 191.007812 67.839844 191.007812 70.042969 C 191.039062 72.726562 191.613281 74.035156 193.667969 76.238281 C 197.898438 80.613281 204.632812 79.335938 208.449219 73.394531 C 209.347656 72.023438 209.441406 71.574219 209.441406 69.53125 C 209.441406 66.847656 208.898438 65.539062 206.8125 63.335938 C 204.410156 60.84375 200.945312 60.011719 197.964844 61.257812 Z M 204.34375 65.410156 C 207.199219 68.125 206.558594 71.449219 202.613281 74.097656 C 201.203125 75.023438 200.6875 75.214844 199.148438 75.214844 C 197.675781 75.214844 197.128906 75.054688 196.328125 74.417969 C 193.316406 71.988281 193.828125 68.445312 197.578125 65.667969 C 199.117188 64.515625 200.242188 64.195312 202.003906 64.355469 C 202.964844 64.484375 203.703125 64.804688 204.34375 65.410156 Z M 204.34375 65.410156 "/>
<path style=" stroke:none;fill-rule:nonzero;fill:rgb(0%,0%,0%);fill-opacity:1;" d="M 41.074219 73.714844 C 40.59375 73.875 39.117188 76.175781 39.117188 76.71875 C 39.148438 76.941406 39.472656 77.515625 39.855469 77.960938 C 40.242188 78.410156 41.425781 79.847656 42.484375 81.15625 C 43.511719 82.464844 44.535156 83.679688 44.730469 83.871094 C 44.890625 84.0625 45.851562 85.214844 46.8125 86.425781 C 47.777344 87.609375 49.15625 89.238281 49.890625 90.003906 L 51.175781 91.441406 L 51.878906 90.257812 C 52.839844 88.628906 52.777344 87.960938 51.496094 86.523438 C 50.371094 85.308594 50.277344 84.445312 51.109375 83.390625 C 51.496094 82.914062 52.070312 81.921875 52.554688 80.964844 C 52.746094 80.613281 53.164062 79.976562 53.484375 79.558594 C 54.09375 78.792969 54.15625 78.792969 55.917969 79.175781 C 58.035156 79.65625 58.355469 79.496094 59.351562 77.546875 C 59.832031 76.621094 59.863281 76.300781 59.574219 76.207031 C 58.710938 75.984375 54.253906 75.3125 51.945312 75.054688 C 50.628906 74.929688 48.449219 74.640625 47.132812 74.417969 C 42.453125 73.714844 41.457031 73.585938 41.074219 73.714844 Z M 46.589844 77.804688 C 50.246094 78.28125 50.117188 78.21875 49.890625 79.242188 C 49.699219 80.230469 48.480469 82.082031 48.03125 82.082031 C 47.871094 82.082031 47.132812 81.414062 46.398438 80.613281 C 44.441406 78.472656 43.671875 77.003906 44.761719 77.417969 C 45.050781 77.515625 45.851562 77.707031 46.589844 77.804688 Z M 46.589844 77.804688 "/>
<path style=" stroke:none;fill-rule:nonzero;fill:rgb(0%,0%,0%);fill-opacity:1;" d="M 213.066406 77.769531 C 212.359375 78.1875 210.628906 79.113281 209.21875 79.847656 C 207.808594 80.582031 205.273438 81.890625 203.605469 82.753906 C 199.855469 84.703125 199.472656 85.054688 200.144531 85.820312 C 200.402344 86.140625 200.722656 86.648438 200.816406 86.9375 C 200.945312 87.257812 201.296875 87.511719 201.652344 87.511719 C 202.261719 87.511719 206.363281 85.53125 206.972656 84.925781 C 207.613281 84.285156 208.386719 84.671875 209.058594 85.980469 C 209.925781 87.671875 211.398438 90.257812 211.65625 90.515625 C 211.75 90.609375 212.296875 90.546875 212.839844 90.355469 C 214.027344 89.941406 214.445312 88.980469 213.773438 88.214844 C 213.546875 87.925781 213.003906 87 212.617188 86.171875 C 212.199219 85.308594 211.75 84.574219 211.589844 84.445312 C 211.429688 84.351562 211.300781 83.933594 211.300781 83.519531 C 211.300781 82.945312 211.625 82.625 212.679688 82.113281 C 213.449219 81.730469 214.21875 81.445312 214.445312 81.445312 C 214.796875 81.445312 216.402344 84 217.683594 86.617188 C 218.550781 88.4375 219.09375 88.664062 220.3125 87.769531 C 221.242188 87.066406 221.304688 86.363281 220.535156 85.371094 C 220.25 84.988281 219.734375 84.09375 217.265625 79.367188 C 215.824219 76.652344 215.34375 76.460938 213.066406 77.769531 Z M 213.066406 77.769531 "/>
<path style=" stroke:none;fill-rule:nonzero;fill:rgb(0%,0%,0%);fill-opacity:1;" d="M 34.789062 89.011719 C 32.160156 90.386719 30.460938 93.292969 30.460938 96.488281 C 30.460938 99.714844 32.449219 102.332031 36.167969 103.992188 C 38.734375 105.144531 42.902344 105.238281 44.601562 104.183594 C 46.203125 103.195312 47.390625 101.949219 48.191406 100.449219 C 49.058594 98.785156 49.121094 94.859375 48.320312 93.964844 C 48.03125 93.644531 47.777344 93.230469 47.777344 93.101562 C 47.777344 92.65625 46.140625 91.34375 45.5625 91.34375 C 45.082031 91.34375 43.605469 93.132812 43.605469 93.707031 C 43.605469 93.835938 44.121094 94.539062 44.730469 95.273438 C 45.371094 96.039062 45.851562 96.902344 45.851562 97.382812 C 45.851562 99.171875 43.511719 101.566406 41.78125 101.566406 C 40.816406 101.566406 37.835938 100.765625 36.875 100.222656 C 34.980469 99.203125 34.308594 98.5625 33.828125 97.253906 C 33.316406 95.976562 33.316406 95.816406 33.859375 94.667969 C 34.597656 93.132812 35.496094 92.335938 36.554688 92.304688 C 37.773438 92.304688 38.15625 91.726562 38.15625 90.003906 L 38.15625 88.46875 L 36.96875 88.46875 C 36.296875 88.503906 35.335938 88.726562 34.789062 89.011719 Z M 34.789062 89.011719 "/>
<path style=" stroke:none;fill-rule:nonzero;fill:rgb(0%,0%,0%);fill-opacity:1;" d="M 222.523438 101.40625 C 221.914062 101.628906 221.050781 101.851562 220.632812 101.851562 C 220.214844 101.886719 219.125 102.078125 218.226562 102.332031 C 217.332031 102.585938 215.726562 103.003906 214.667969 103.289062 C 213.609375 103.546875 211.75 104.023438 210.566406 104.34375 L 208.351562 104.917969 L 208.546875 106.003906 C 208.640625 106.578125 208.929688 107.316406 209.21875 107.632812 C 209.761719 108.242188 209.761719 108.242188 213.226562 107.28125 C 214.027344 107.058594 215.246094 106.773438 215.953125 106.644531 C 216.65625 106.515625 217.875 106.230469 218.675781 106.035156 C 219.480469 105.8125 220.921875 105.460938 221.882812 105.238281 C 227.015625 103.992188 227.046875 103.960938 226.246094 102.078125 C 225.828125 101.085938 225.636719 100.925781 224.707031 100.957031 C 224.128906 100.957031 223.132812 101.183594 222.523438 101.40625 Z M 222.523438 101.40625 "/>
<path style=" stroke:none;fill-rule:nonzero;fill:rgb(0%,0%,0%);fill-opacity:1;" d="M 27.542969 107.507812 C 26.933594 109.199219 26.835938 110.15625 27.285156 110.316406 C 27.734375 110.445312 30.683594 111.019531 35.527344 111.914062 C 36.96875 112.203125 39.277344 112.648438 40.65625 112.9375 C 42.003906 113.222656 43.480469 113.382812 43.929688 113.351562 C 44.664062 113.222656 44.730469 113.09375 44.730469 111.625 L 44.730469 110.03125 L 43.125 109.773438 C 42.261719 109.613281 40.6875 109.292969 39.695312 109.039062 C 38.667969 108.785156 37.484375 108.59375 37.035156 108.59375 C 36.585938 108.59375 35.398438 108.402344 34.371094 108.144531 C 33.378906 107.890625 31.742188 107.539062 30.78125 107.378906 C 29.820312 107.1875 28.761719 106.964844 28.472656 106.835938 C 28.054688 106.675781 27.832031 106.835938 27.542969 107.507812 Z M 27.542969 107.507812 "/>
<path style=" stroke:none;fill-rule:nonzero;fill:rgb(0%,0%,0%);fill-opacity:1;" d="M 221.722656 110.03125 C 219.574219 110.445312 215.4375 111.050781 212.105469 111.433594 L 210.5 111.625 L 210.40625 112.9375 C 210.246094 115.171875 210.4375 115.203125 218.355469 113.863281 C 219.894531 113.605469 221.179688 113.511719 221.339844 113.671875 C 221.59375 113.925781 219.832031 115.492188 215.953125 118.492188 C 213.546875 120.378906 211.976562 121.78125 211.816406 122.230469 C 211.71875 122.484375 211.785156 123.347656 211.976562 124.144531 C 212.359375 125.582031 212.359375 125.582031 213.515625 125.390625 C 214.15625 125.265625 215.824219 125.039062 217.234375 124.914062 C 218.644531 124.753906 220.824219 124.464844 222.042969 124.273438 C 223.292969 124.082031 225.410156 123.761719 226.757812 123.570312 C 228.136719 123.347656 229.386719 123.027344 229.578125 122.804688 C 229.738281 122.613281 229.804688 121.910156 229.675781 121.273438 C 229.515625 120.121094 229.449219 120.089844 228.136719 120.089844 C 227.367188 120.089844 225.601562 120.3125 224.222656 120.570312 C 221.433594 121.113281 218.675781 121.207031 218.675781 120.761719 C 218.675781 120.601562 219.03125 120.25 219.445312 119.996094 C 219.863281 119.707031 220.375 119.292969 220.632812 119.066406 C 221.113281 118.621094 225.027344 115.425781 226.980469 113.925781 C 228.488281 112.746094 228.679688 112.394531 228.359375 110.921875 L 228.105469 109.710938 L 226.050781 109.644531 C 224.898438 109.644531 222.972656 109.804688 221.722656 110.03125 Z M 221.722656 110.03125 "/>
<path style=" stroke:none;fill-rule:nonzero;fill:rgb(0%,0%,0%);fill-opacity:1;" d="M 30.460938 116.929688 C 28.632812 117.566406 27.285156 118.652344 26.292969 120.25 C 25.8125 121.046875 25.683594 122.007812 25.621094 125.773438 C 25.554688 128.714844 25.652344 130.4375 25.875 130.660156 C 26.101562 130.886719 29.210938 131.078125 34.46875 131.171875 C 42.261719 131.363281 42.773438 131.332031 43.160156 130.789062 C 43.734375 130.023438 43.765625 123.539062 43.222656 121.496094 C 42.066406 117.28125 35.816406 115.042969 30.460938 116.929688 Z M 38.605469 120.824219 C 40.113281 121.65625 40.464844 122.675781 40.335938 125.617188 L 40.242188 127.597656 L 28.699219 127.597656 L 28.601562 125.425781 C 28.503906 122.964844 29.019531 121.78125 30.652344 120.695312 C 32.0625 119.769531 36.875 119.835938 38.605469 120.824219 Z M 38.605469 120.824219 "/>
<path style=" stroke:none;fill-rule:nonzero;fill:rgb(0%,0%,0%);fill-opacity:1;" d="M 211.945312 130.503906 C 211.496094 131.652344 211.015625 137.6875 211.207031 139.316406 C 211.429688 141.105469 212.96875 142.992188 215.183594 144.171875 C 216.785156 145.035156 217.171875 145.097656 220.601562 145.128906 C 224.097656 145.128906 224.351562 145.097656 225.636719 144.269531 C 226.40625 143.789062 227.367188 142.863281 227.785156 142.191406 C 228.585938 140.914062 229.484375 136.890625 229.644531 133.664062 L 229.738281 131.746094 L 226.050781 131.203125 C 220.121094 130.34375 214.445312 129.671875 213.289062 129.671875 C 212.457031 129.671875 212.167969 129.832031 211.945312 130.503906 Z M 219.640625 133.984375 C 221.144531 134.238281 223.039062 134.460938 223.839844 134.460938 C 224.640625 134.460938 225.539062 134.65625 225.859375 134.878906 C 226.40625 135.292969 226.4375 135.484375 226.050781 137.527344 C 225.796875 138.742188 225.347656 140.050781 224.992188 140.433594 C 224.0625 141.457031 221.914062 141.90625 219.542969 141.488281 C 216.402344 140.945312 216.207031 140.882812 215.183594 140.019531 C 214.253906 139.253906 214.1875 139.0625 214.1875 136.859375 C 214.1875 135.582031 214.285156 134.304688 214.378906 134.015625 C 214.636719 133.375 216.082031 133.34375 219.640625 133.984375 Z M 219.640625 133.984375 "/>
<path style=" stroke:none;fill-rule:nonzero;fill:rgb(0%,0%,0%);fill-opacity:1;" d="M 41.105469 134.878906 C 40.722656 135.324219 41.011719 138.964844 41.683594 141.9375 C 41.875 142.765625 41.941406 143.726562 41.84375 144.042969 C 41.652344 144.652344 40.402344 145.003906 38.445312 145.003906 L 37.226562 145.003906 L 36.839844 143.148438 C 36.617188 142.160156 36.359375 140.339844 36.265625 139.125 C 36.039062 136.601562 35.558594 136.027344 34.085938 136.570312 C 33.21875 136.859375 33.1875 136.953125 33.25 138.773438 C 33.316406 139.828125 33.507812 141.746094 33.699219 143.023438 C 33.925781 144.300781 33.988281 145.417969 33.890625 145.546875 C 33.441406 145.992188 30.589844 146.023438 30.238281 145.578125 C 30.011719 145.355469 29.691406 143.660156 29.53125 141.839844 C 29.082031 137.71875 28.699219 136.824219 27.414062 136.953125 C 25.8125 137.113281 25.621094 137.527344 26.132812 139.890625 C 26.390625 141.042969 26.582031 142.480469 26.613281 143.085938 C 26.613281 144.585938 27.605469 149.601562 27.960938 149.824219 C 28.089844 149.921875 29.113281 149.890625 30.203125 149.761719 C 32.097656 149.539062 33.601562 149.347656 39.214844 148.484375 C 40.464844 148.292969 42.292969 148.035156 43.191406 147.972656 C 45.722656 147.71875 45.660156 148.164062 44.535156 141.011719 C 44.3125 139.605469 44.054688 137.59375 43.960938 136.539062 L 43.765625 134.621094 L 42.613281 134.527344 C 41.941406 134.460938 41.332031 134.589844 41.105469 134.878906 Z M 41.105469 134.878906 "/>
<path style=" stroke:none;fill-rule:nonzero;fill:rgb(0%,0%,0%);fill-opacity:1;" d="M 208.898438 148.484375 C 208.578125 149.1875 208.417969 149.953125 208.511719 150.175781 C 208.671875 150.59375 210.117188 151.070312 214.507812 152.1875 C 216.816406 152.761719 218.902344 153.304688 221.5625 154.042969 C 222.523438 154.328125 223.839844 154.648438 224.480469 154.742188 C 225.570312 154.933594 225.636719 154.902344 226.210938 153.65625 C 226.917969 152.0625 226.628906 151.613281 224.511719 151.101562 C 223.679688 150.878906 222.300781 150.527344 221.402344 150.273438 C 220.535156 150.050781 218.871094 149.601562 217.714844 149.3125 C 216.5625 149.027344 214.925781 148.578125 214.027344 148.355469 C 211.65625 147.71875 209.796875 147.238281 209.636719 147.238281 C 209.539062 147.238281 209.21875 147.8125 208.898438 148.484375 Z M 208.898438 148.484375 "/>
<path style=" stroke:none;fill-rule:nonzero;fill:rgb(0%,0%,0%);fill-opacity:1;" d="M 45.210938 151.710938 C 44.761719 151.871094 43.605469 152.285156 42.644531 152.667969 C 41.683594 153.050781 40.527344 153.433594 40.082031 153.53125 C 39.632812 153.625 39.117188 153.847656 38.894531 154.007812 C 38.667969 154.199219 38.027344 154.457031 37.449219 154.585938 C 36.875 154.742188 35.589844 155.160156 34.628906 155.542969 C 33.667969 155.925781 32.351562 156.371094 31.742188 156.5 C 30.011719 156.949219 29.789062 157.523438 30.523438 159.472656 C 30.878906 160.398438 31.230469 161.386719 31.328125 161.675781 C 31.550781 162.378906 33.121094 162.410156 37.835938 161.769531 C 42.261719 161.164062 43.285156 161.164062 43.285156 161.769531 C 43.285156 162.027344 43.160156 162.25 42.996094 162.25 C 42.804688 162.25 41.714844 162.921875 40.496094 163.75 C 39.3125 164.582031 37.515625 165.761719 36.554688 166.433594 C 33.699219 168.316406 33.761719 168.15625 35.078125 171.671875 C 35.527344 172.886719 35.589844 172.949219 36.777344 172.851562 C 37.449219 172.789062 38.15625 172.597656 38.378906 172.40625 C 38.605469 172.246094 39.246094 171.957031 39.824219 171.832031 C 40.402344 171.671875 41.683594 171.257812 42.644531 170.871094 C 43.605469 170.488281 44.859375 170.074219 45.371094 169.914062 C 45.914062 169.753906 47.132812 169.339844 48.097656 168.957031 C 49.058594 168.574219 50.246094 168.191406 50.726562 168.09375 C 51.207031 168 51.816406 167.679688 52.105469 167.359375 C 52.585938 166.816406 52.585938 166.6875 51.945312 165.476562 C 51.269531 164.101562 51.015625 163.941406 50.4375 164.515625 C 50.246094 164.707031 49.601562 164.964844 49.027344 165.125 C 47.9375 165.410156 47.070312 165.699219 43.605469 167.074219 C 40.976562 168.0625 40.402344 168.15625 40.402344 167.550781 C 40.402344 167.265625 40.527344 167.039062 40.722656 167.039062 C 40.882812 167.039062 41.972656 166.402344 43.160156 165.601562 C 44.3125 164.804688 45.339844 164.164062 45.433594 164.164062 C 45.53125 164.164062 46.140625 163.71875 46.8125 163.207031 C 47.488281 162.664062 48.160156 162.25 48.320312 162.25 C 48.480469 162.25 48.960938 161.898438 49.347656 161.484375 C 50.050781 160.75 50.085938 160.621094 49.667969 159.3125 C 49.21875 157.9375 49.21875 157.9375 47.777344 157.96875 C 46.972656 157.96875 44.601562 158.128906 42.484375 158.320312 C 38.703125 158.640625 37.835938 158.609375 37.835938 158.097656 C 37.835938 157.875 39.757812 157.105469 41.84375 156.5 C 42.390625 156.371094 43.542969 155.957031 44.410156 155.605469 C 48.351562 154.074219 48.160156 154.296875 47.101562 152.539062 C 46.363281 151.292969 46.398438 151.328125 45.210938 151.710938 Z M 45.210938 151.710938 "/>
<path style=" stroke:none;fill-rule:nonzero;fill:rgb(0%,0%,0%);fill-opacity:1;" d="M 208.320312 153.019531 C 208.03125 153.179688 207.648438 153.914062 207.453125 154.648438 C 207.101562 155.957031 207.101562 155.957031 208.578125 157.457031 C 209.796875 158.703125 210.019531 159.085938 209.761719 159.566406 C 209.601562 159.917969 209.25 160.683594 208.992188 161.292969 C 208.707031 161.898438 208.222656 163.015625 207.902344 163.75 L 207.292969 165.125 L 202.964844 165.125 L 202.261719 166.53125 C 201.042969 169.019531 200.753906 168.957031 211.398438 168.957031 L 220.792969 168.957031 L 221.339844 167.839844 C 222.300781 165.859375 222.109375 165.445312 219.09375 162.601562 C 217.523438 161.164062 214.605469 158.351562 212.585938 156.339844 C 209.601562 153.433594 208.769531 152.796875 208.320312 153.019531 Z M 214.828125 163.175781 C 215.886719 164.199219 216.753906 165.21875 216.753906 165.410156 C 216.753906 165.699219 216.046875 165.730469 214.285156 165.601562 C 210.949219 165.316406 210.886719 165.285156 211.109375 164.230469 C 211.367188 163.144531 212.328125 161.292969 212.648438 161.292969 C 212.777344 161.292969 213.738281 162.121094 214.828125 163.175781 Z M 214.828125 163.175781 "/>
<path style=" stroke:none;fill-rule:nonzero;fill:rgb(0%,0%,0%);fill-opacity:1;" d="M 58.003906 186.96875 C 56.722656 187.351562 55.183594 188.3125 54.574219 189.046875 C 53.644531 190.195312 52.585938 191.984375 52.585938 192.398438 C 52.585938 192.6875 52.394531 193.359375 52.136719 193.933594 C 50.566406 197.667969 50.210938 200.671875 51.238281 201.886719 C 52.777344 203.800781 52.777344 203.800781 55.085938 203.578125 C 56.273438 203.449219 57.585938 203.257812 58.035156 203.132812 C 58.453125 203.035156 59.605469 203.066406 60.570312 203.195312 C 61.5625 203.355469 62.910156 203.449219 63.648438 203.386719 C 64.867188 203.289062 64.929688 203.226562 65.027344 202.171875 C 65.058594 201.566406 65.347656 200.066406 65.636719 198.851562 C 66.148438 196.902344 66.339844 196.550781 67.558594 195.65625 C 69.964844 193.867188 69.707031 191.792969 66.949219 190.515625 C 66.019531 190.066406 64.609375 189.175781 63.839844 188.472656 C 63.007812 187.738281 61.851562 187.066406 61.050781 186.875 C 59.480469 186.460938 59.542969 186.460938 58.003906 186.96875 Z M 61.304688 192.78125 C 61.820312 193.039062 62.238281 193.582031 62.363281 194.1875 C 62.8125 196.234375 61.59375 197.667969 59.382812 197.703125 C 57.011719 197.703125 55.792969 196.328125 56.273438 194.125 C 56.433594 193.390625 56.816406 193.007812 57.84375 192.558594 C 59.160156 191.953125 59.734375 191.984375 61.304688 192.78125 Z M 61.304688 192.78125 "/>
<path style=" stroke:none;fill-rule:nonzero;fill:rgb(0%,0%,0%);fill-opacity:1;" d="M 191.359375 190.035156 C 190.71875 190.386719 189.820312 191.152344 189.371094 191.695312 C 188.410156 192.976562 187.253906 195.816406 187.253906 196.933594 C 187.253906 197.957031 186.355469 201.628906 185.746094 203.164062 C 185.105469 204.761719 185.296875 205.429688 186.613281 206.101562 C 187.511719 206.546875 188.183594 206.613281 190.074219 206.453125 C 191.902344 206.292969 192.511719 206.324219 192.960938 206.707031 C 193.761719 207.410156 195.078125 207.632812 196.90625 207.410156 C 198.734375 207.15625 198.925781 206.898438 200.113281 203.289062 C 200.6875 201.535156 201.042969 201.023438 202.164062 200.226562 C 203.414062 199.332031 204.570312 197.605469 204.570312 196.617188 C 204.570312 196.390625 204.25 195.914062 203.832031 195.53125 C 203.222656 194.953125 202.710938 194.828125 201.136719 194.828125 C 199.183594 194.828125 199.148438 194.796875 198.027344 193.421875 C 197.386719 192.6875 196.875 191.921875 196.875 191.761719 C 196.839844 191.3125 195.785156 190.164062 195.046875 189.75 C 194.050781 189.238281 192.707031 189.332031 191.359375 190.035156 Z M 195.847656 197.765625 C 196.425781 198.980469 196.039062 200.769531 194.980469 201.726562 C 193.957031 202.652344 193.730469 202.683594 192.800781 201.789062 C 191.742188 200.800781 191.808594 199.011719 192.898438 197.703125 C 193.988281 196.457031 195.238281 196.488281 195.847656 197.765625 Z M 195.847656 197.765625 "/>
<path style=" stroke:none;fill-rule:nonzero;fill:rgb(0%,0%,0%);fill-opacity:1;" d="M 100.679688 203.484375 C 99.464844 204.25 97.027344 205.046875 95.96875 205.046875 C 95.230469 205.046875 94.269531 206.421875 94.269531 207.441406 C 94.269531 208.019531 95.96875 208.113281 97.347656 207.601562 C 97.925781 207.378906 98.339844 207.378906 98.53125 207.570312 C 98.855469 207.890625 98.695312 208.402344 97.316406 211.59375 C 97.089844 212.105469 96.671875 213.191406 96.351562 213.992188 C 96.0625 214.789062 95.613281 215.875 95.390625 216.386719 C 95.167969 216.929688 94.910156 217.792969 94.78125 218.335938 C 94.589844 219.226562 94.652344 219.386719 95.453125 219.675781 C 95.9375 219.835938 96.578125 220.089844 96.867188 220.21875 C 97.441406 220.441406 98.019531 219.453125 99.238281 216.226562 C 99.527344 215.425781 99.976562 214.34375 100.199219 213.832031 C 100.425781 213.289062 100.808594 212.296875 101.097656 211.59375 C 101.355469 210.890625 102.027344 209.230469 102.574219 207.921875 C 103.917969 204.632812 104.113281 203.578125 103.34375 203.386719 C 103.023438 203.289062 102.542969 203.097656 102.285156 203.003906 C 102.027344 202.90625 101.289062 203.097656 100.679688 203.484375 Z M 100.679688 203.484375 "/>
<path style=" stroke:none;fill-rule:nonzero;fill:rgb(0%,0%,0%);fill-opacity:1;" d="M 154.871094 203.355469 C 153.652344 203.578125 152.046875 204.953125 151.34375 206.324219 C 150.476562 208.019531 150.734375 208.5625 152.527344 208.5625 C 153.84375 208.5625 153.972656 208.496094 154.421875 207.441406 C 154.933594 206.199219 156.054688 205.71875 157.402344 206.199219 C 158.074219 206.421875 158.269531 206.742188 158.332031 207.667969 C 158.429688 208.65625 158.269531 208.945312 157.304688 209.679688 C 156.601562 210.222656 156.152344 210.828125 156.152344 211.242188 C 156.152344 212.234375 156.730469 212.714844 157.59375 212.394531 C 159.007812 211.851562 160.960938 213.574219 160.960938 215.363281 C 160.960938 215.683594 160.671875 216.386719 160.289062 216.898438 C 159.390625 218.175781 157.753906 218.175781 156.28125 216.898438 C 155.222656 215.9375 155.222656 215.9375 153.90625 216.449219 C 153.203125 216.738281 152.625 217.089844 152.625 217.25 C 152.625 217.886719 154.132812 219.515625 155.253906 220.089844 C 157.789062 221.398438 161.667969 220.507812 163.398438 218.238281 C 164.199219 217.183594 164.328125 216.738281 164.328125 215.042969 C 164.328125 213.320312 164.199219 212.9375 163.398438 212.105469 C 162.917969 211.59375 162.148438 211.085938 161.730469 210.988281 C 160.800781 210.734375 160.769531 210.507812 161.601562 208.71875 C 162.210938 207.410156 162.210938 207.21875 161.761719 206.070312 C 161.027344 204.28125 159.679688 203.417969 157.46875 203.289062 C 156.472656 203.226562 155.320312 203.257812 154.871094 203.355469 Z M 154.871094 203.355469 "/>
<path style=" stroke:none;fill-rule:nonzero;fill:rgb(0%,0%,0%);fill-opacity:1;" d="M 115.046875 206.003906 C 114.40625 206.355469 113.441406 207.15625 112.960938 207.828125 C 112.160156 208.878906 112.0625 209.230469 112.0625 211.5625 C 112.0625 214.34375 112.386719 215.078125 114.117188 216.417969 C 114.789062 216.898438 115.429688 217.023438 117.449219 216.992188 C 118.796875 216.992188 119.917969 217.089844 119.917969 217.25 C 119.917969 217.664062 118.957031 219.484375 118.378906 220.121094 C 118.09375 220.472656 117.449219 220.699219 116.679688 220.699219 C 115.65625 220.699219 115.398438 220.539062 115.046875 219.804688 C 114.660156 219.035156 114.40625 218.941406 112.929688 218.84375 C 111.390625 218.75 111.261719 218.8125 111.261719 219.453125 C 111.261719 220.472656 112.417969 222.167969 113.636719 222.902344 C 115.015625 223.765625 118.253906 223.828125 119.695312 222.996094 C 122.613281 221.367188 123.863281 218.460938 123.894531 213.160156 C 123.929688 209.679688 123.894531 209.550781 122.964844 208.175781 C 121.074219 205.527344 117.738281 204.601562 115.046875 206.003906 Z M 119.277344 208.914062 C 119.953125 209.488281 120.082031 209.839844 120.082031 211.5 C 120.082031 213.191406 119.984375 213.511719 119.183594 214.183594 C 117.773438 215.394531 116.488281 215.078125 115.558594 213.289062 C 114.980469 212.136719 115.140625 210.796875 116.070312 209.261719 C 116.839844 208.050781 118.058594 207.890625 119.277344 208.914062 Z M 119.277344 208.914062 "/>
<path style=" stroke:none;fill-rule:nonzero;fill:rgb(0%,0%,0%);fill-opacity:1;" d="M 137.265625 206.070312 C 135.792969 206.484375 134.605469 207.441406 134.125 208.625 C 133.546875 209.964844 133.578125 210.0625 134.765625 210.445312 C 136.015625 210.859375 136.816406 210.667969 137.074219 209.871094 C 137.363281 208.914062 138.710938 208.496094 139.765625 209.039062 C 141.53125 209.933594 141.144531 211.753906 138.996094 212.90625 C 137.972656 213.414062 137.683594 213.765625 137.621094 214.535156 C 137.523438 215.425781 137.621094 215.523438 138.710938 215.683594 C 140.375 215.96875 141.082031 216.707031 141.082031 218.207031 C 141.082031 219.769531 140.664062 220.570312 139.542969 221.144531 C 138.742188 221.558594 138.515625 221.558594 137.652344 221.113281 C 137.074219 220.855469 136.496094 220.25 136.304688 219.707031 C 136.015625 218.878906 135.855469 218.78125 134.507812 218.78125 C 132.777344 218.78125 132.519531 219.164062 133.195312 220.730469 C 133.867188 222.292969 135.214844 223.445312 137.171875 224.050781 C 138.773438 224.59375 138.933594 224.59375 140.375 224.050781 C 141.210938 223.730469 142.300781 223.125 142.78125 222.644531 C 145.1875 220.472656 145.15625 216.738281 142.78125 215.011719 L 141.949219 214.40625 L 143.007812 213.449219 C 143.96875 212.585938 144.097656 212.296875 144.097656 210.734375 C 144.128906 208.335938 143.039062 206.867188 140.699219 206.164062 C 138.835938 205.621094 138.773438 205.621094 137.265625 206.070312 Z M 137.265625 206.070312 "/>
</g>
</svg>
